HIERARCHY
ROOT Hips
{
	OFFSET 0.00000 0.00000 0.00000
	CHANNELS 6 Xposition Yposition Zposition Zrotation Yrotation Xrotation 
	JOINT LHipJoint
	{
		OFFSET 0 0 0
		CHANNELS 3 Zrotation Yrotation Xrotation
		JOINT LeftHip
		{
			OFFSET 1.48416 -1.82041 0.59464
			CHANNELS 3 Zrotation Yrotation Xrotation
			JOINT LeftKnee
			{
				OFFSET 2.43280 -6.68407 0.00000
				CHANNELS 3 Zrotation Yrotation Xrotation
				JOINT LeftAnkle
				{
					OFFSET 2.68325 -7.37216 0.00000
					CHANNELS 3 Zrotation Yrotation Xrotation
					JOINT LeftToe
					{
						OFFSET 0.15365 -0.42214 1.91990
						CHANNELS 3 Zrotation Yrotation Xrotation
						End Site
						{
							OFFSET 0.00000 -0.00000 0.99320
						}
					}
				}
			}
		}
	}
	JOINT RHipJoint
	{
		OFFSET 0 0 0
		CHANNELS 3 Zrotation Yrotation Xrotation
		JOINT RightHip
		{
			OFFSET -1.70852 -1.82040 0.59464
			CHANNELS 3 Zrotation Yrotation Xrotation
			JOINT RightKnee
			{
				OFFSET -2.50396 -6.87957 0.00000
				CHANNELS 3 Zrotation Yrotation Xrotation
				JOINT RightAnkle
				{
					OFFSET -2.67204 -7.34139 0.00000
					CHANNELS 3 Zrotation Yrotation Xrotation
					JOINT RightToe
					{
						OFFSET -0.17346 -0.47657 2.02009
						CHANNELS 3 Zrotation Yrotation Xrotation
						End Site
						{
							OFFSET -0.00000 -0.00000 1.04609
						}
					}
				}
			}
		}
	}
	JOINT lowerback
	{
		OFFSET 0 0 0
		CHANNELS 3 Zrotation Yrotation Xrotation
		JOINT Chest
		{
			OFFSET -0.01022 1.99636 -0.30653
			CHANNELS 3 Zrotation Yrotation Xrotation
			JOINT Chest2
			{
				OFFSET -0.01683 2.01212 0.04808
				CHANNELS 3 Zrotation Yrotation Xrotation
				JOINT lowerneck
				{
					OFFSET 0 0 0
					CHANNELS 3 Zrotation Yrotation Xrotation
					JOINT Neck
					{
						OFFSET -0.03080 1.91178 0.03911
						CHANNELS 3 Zrotation Yrotation Xrotation
						JOINT Head
						{
							OFFSET 0.10605 1.89839 -0.23433
							CHANNELS 3 Zrotation Yrotation Xrotation
							End Site
							{
								OFFSET 0.03474 1.92469 -0.08609
							}
						}
					}
				}
				JOINT LeftCollar
				{
					OFFSET 0 0 0
					CHANNELS 3 Zrotation Yrotation Xrotation
					JOINT LeftShoulder
					{
						OFFSET 3.78977 1.27972 -0.24661
CHANNELS 3 Zrotation Xrotation Yrotation
						JOINT LeftElbow
						{
OFFSET 0 -5.641470 -0.000000
CHANNELS 3 Zrotation Xrotation Yrotation
							JOINT LeftWrist
							{
OFFSET 0 -2.864440 -0.000000
CHANNELS 3 Zrotation Xrotation Yrotation
								JOINT lhand
								{
									OFFSET 0 0 0
CHANNELS 3 Zrotation Xrotation Yrotation
									JOINT LFingers
									{
OFFSET 0 -0.722120 -0.000000
CHANNELS 3 Zrotation Xrotation Yrotation
										End Site
										{
OFFSET 0 -0.582190 -0.000000
										}
									}
								}
								JOINT LThumb
								{
OFFSET 0 0.000000 0.000000
CHANNELS 3 Zrotation Xrotation Yrotation
									End Site
									{
OFFSET 0 -0.591080 0.591080
									}
								}
							}
						}
					}
				}
				JOINT RightCollar
				{
					OFFSET 0 0 0
					CHANNELS 3 Zrotation Yrotation Xrotation
					JOINT RightShoulder
					{
						OFFSET -3.41176 1.18605 -0.57927
CHANNELS 3 Zrotation Xrotation Yrotation
						JOINT RightElbow
						{
OFFSET 0 -5.447290 -0.000000
CHANNELS 3 Zrotation Xrotation Yrotation
							JOINT RightWrist
							{
OFFSET 0 -3.088210 -0.000000
CHANNELS 3 Zrotation Xrotation Yrotation
								JOINT rhand
								{
									OFFSET 0 0 0
CHANNELS 3 Zrotation Xrotation Yrotation
									JOINT RFingers
									{
OFFSET 0 -0.821050 -0.000000
CHANNELS 3 Zrotation Xrotation Yrotation
										End Site
										{
OFFSET 0 -0.661950 -0.000000
										}
									}
								}
								JOINT RThumb
								{
OFFSET 0 0.000000 0.000000
CHANNELS 3 Zrotation Xrotation Yrotation
									End Site
									{
OFFSET 0 -0.672060 0.672060
									}
								}
							}
						}
					}
				}
			}
		}
	}
}
MOTION
Frames: 6
Frame Time: 0.008333333333333333
2.536600 17.685400 0.527700 -176.716000 85.272700 -178.161000 0.000000 0.000000 0.000000 -15.687900 -0.257900 -0.573600 0.324900 3.663500 10.131800 0.228500 -3.749800 -8.516100 0.056000 -1.527500 -4.201500 0.000000 0.000000 0.000000 18.898500 -1.112400 -0.450700 -0.665400 -5.217000 14.528400 -0.903000 2.330700 -17.322600 -0.296300 3.500300 -9.674800 4.168800 -0.622400 5.016300 0.561100 -0.565900 0.494700 -1.721700 -0.312000 -2.339200 -4.450400 -5.022200 -1.955000 9.135700 -6.527100 -1.604300 3.653100 -3.208900 0.324800 -0.000000 -0.000000 0.000000 8.886900 -11.807300 -59.444200 18.434600 -28.710000 4.756200 0.442400 -45.934100 -17.103600 0.000000 0.000000 0.000000 -7.125000 0.000000 0.000000 -25.384300 45.418100 0.280300 -0.000000 -0.000000 0.000000 -5.342400 -2.655300 3.526100 -8.569100 -14.471000 -1.089900 -5.929300 22.192200 -6.216000 0.000000 0.000000 0.000000 7.125000 0.000000 -0.000000 15.270800 23.748900 8.108400
2.590028 17.694894 0.575256 -173.663925 86.356506 -174.515332 0.000000 0.000000 0.000000 -15.373185 -0.386466 -0.875542 0.334377 3.716202 10.279627 0.283750 -2.996562 -9.475149 0.111347 -2.151017 -5.923236 0.000000 0.000000 0.000000 19.250067 -0.177146 -0.945630 -0.679152 -5.269386 14.678537 -0.895260 2.572464 -17.197744 -0.214551 2.978762 -8.219769 4.809122 -0.874281 5.402206 1.206237 -0.804892 0.174073 -1.390254 -0.446643 -2.902153 -4.349563 -4.822104 -2.304364 9.758271 -6.041131 -4.078507 3.894202 -2.983357 -0.422848 0.000000 0.000000 0.000000 5.874928 -4.518171 -29.862365 6.365354 -10.869844 0.606627 14.583654 -19.409837 -11.575490 0.000000 0.000000 0.000000 -7.125000 0.000000 0.000000 -11.215559 41.662924 -0.936487 0.000000 0.000000 0.000000 -5.867448 10.325942 15.588001 -16.360439 -26.006660 -3.802694 -5.990661 3.792108 -7.092949 0.000000 0.000000 0.000000 7.125000 0.000000 0.000000 15.134771 22.897391 8.339392
2.651144 17.687885 0.554700 -190.423952 88.965862 -191.148528 0.000000 0.000000 0.000000 -16.192445 0.268999 0.157418 0.280191 3.404326 9.406639 0.360378 -1.171487 -10.989996 0.084142 -1.871112 -5.149620 0.000000 0.000000 0.000000 18.417635 0.649877 -1.400764 -0.751995 -5.538782 15.451936 -0.811424 4.078122 -16.133815 -0.247079 3.197693 -8.829744 4.413147 -0.946745 5.450255 1.567338 -0.907980 0.169674 -0.787478 -0.488989 -2.927536 -3.467817 -4.273992 -2.831105 8.734609 -5.340151 -3.998089 3.368772 -2.629500 -0.415354 0.000000 0.000000 0.000000 5.398161 7.264243 -15.934766 7.122247 -12.120199 0.757226 9.692809 -24.249663 -13.329488 0.000000 0.000000 0.000000 -7.125000 0.000000 0.000000 -15.948678 42.917462 -0.842072 0.000000 0.000000 0.000000 -6.257013 12.460921 10.761640 -15.970898 -25.481117 -3.633423 -5.519316 6.798854 -7.815414 0.000000 0.000000 0.000000 7.125000 0.000000 0.000000 15.397715 22.204489 8.749315
2.680664 17.673129 0.482282 -164.738025 90.950959 -165.693339 0.000000 0.000000 0.000000 -16.566595 0.916532 0.592728 0.299885 3.520978 9.732620 0.440392 -0.335144 -12.424242 0.057750 -1.550316 -4.264368 0.000000 0.000000 0.000000 18.091311 1.687699 -1.308212 -0.813766 -5.756511 16.079487 -0.771223 4.958036 -15.661430 -0.284918 3.432871 -9.486259 4.772124 -0.749019 5.696577 1.474774 -0.604363 -0.008956 -1.103913 -0.353016 -3.241841 -2.775208 -4.106392 -2.380808 8.379124 -5.155778 -3.814773 3.129650 -2.554019 -0.476785 0.000000 0.000000 0.000000 4.201421 12.053650 -9.624832 7.431095 -12.626461 0.823244 8.848930 -25.465289 -12.552337 0.000000 0.000000 0.000000 -7.125000 0.000000 0.000000 -16.455102 42.080225 -1.221798 0.000000 0.000000 0.000000 -6.572721 10.877782 6.162641 -14.217166 -23.044338 -2.912540 -5.280808 9.738689 -8.306811 0.000000 0.000000 0.000000 7.125000 0.000000 0.000000 15.518012 21.733188 8.996595
2.660080 17.664836 0.409697 -178.777254 92.009675 -180.099865 0.000000 0.000000 0.000000 -16.508945 1.940614 0.215922 0.356346 3.834853 10.612626 0.473727 -0.636273 -12.796643 0.058588 -1.561823 -4.296219 0.000000 0.000000 0.000000 18.225701 3.006847 -0.811997 -0.841972 -5.853066 16.358716 -0.792609 4.489916 -15.907032 -0.366302 3.887089 -10.759266 4.722343 -0.703040 6.090993 1.506789 -0.510461 -0.296154 -1.044675 -0.319574 -3.755940 -2.638701 -3.835476 -1.716083 8.104222 -4.762615 -4.496792 3.045860 -2.383521 -0.843140 0.000000 0.000000 0.000000 3.470230 9.667906 -7.070749 6.952381 -11.840855 0.721918 8.915869 -24.443115 -12.103625 0.000000 0.000000 0.000000 -7.125000 0.000000 0.000000 -16.269410 41.652326 -1.384229 0.000000 0.000000 0.000000 -7.019962 8.102514 7.121531 -14.673665 -23.689491 -3.093647 -5.237951 9.420518 -8.887244 0.000000 0.000000 0.000000 7.125000 0.000000 0.000000 15.492654 21.172532 9.186166
2.704394 17.674608 0.292556 -182.685987 92.189738 -184.194783 0.000000 0.000000 0.000000 -16.648290 2.062238 0.597828 0.358225 3.844955 10.640985 0.493514 -1.437633 -12.850437 0.001331 -0.232292 -0.638343 0.000000 0.000000 0.000000 17.978562 2.944147 -0.290362 -0.796838 -5.697652 15.909639 -0.792238 4.292739 -15.917625 -0.285384 3.435016 -9.492431 4.768931 -0.730349 5.475049 1.272968 -0.569425 -1.065424 -1.306299 -0.375497 -4.214832 -2.532054 -3.593236 -1.184056 8.031258 -4.489635 -3.886799 3.005317 -2.252528 -0.761932 0.000000 0.000000 0.000000 4.193231 4.864199 -9.321801 7.463126 -12.678767 0.830338 9.186386 -24.498734 -11.983287 0.000000 0.000000 0.000000 -7.125000 0.000000 0.000000 -16.003778 41.560812 -1.396473 0.000000 0.000000 0.000000 -6.719988 7.017809 8.490893 -16.514636 -26.213446 -3.870554 -6.116852 8.017348 -7.898849 0.000000 0.000000 0.000000 7.125000 0.000000 0.000000 14.965688 22.112783 8.518746
